<svg xmlns="http://www.w3.org/2000/svg" xmlns:xlink="http://www.w3.org/1999/xlink" width="871.2" height="375.8" viewBox="0 0 871.2 375.8">
  <defs>
    <style>
      .cls-1 {
        fill: url(#linear-gradient);
      }

      .cls-2 {
        fill: #e6e7e8;
      }

      .cls-3 {
        fill: url(#linear-gradient-2);
      }

      .cls-4 {
        fill: url(#linear-gradient-3);
      }

      .cls-5 {
        fill: url(#linear-gradient-4);
      }

      .cls-6 {
        fill: url(#linear-gradient-5);
      }

      .cls-7 {
        fill: url(#linear-gradient-6);
      }

      .cls-8 {
        fill: url(#linear-gradient-7);
      }

      .cls-9 {
        fill: url(#linear-gradient-8);
      }

      .cls-10 {
        fill: url(#linear-gradient-9);
      }

      .cls-11 {
        fill: url(#linear-gradient-10);
      }

      .cls-12 {
        fill: url(#linear-gradient-11);
      }

      .cls-13 {
        fill: url(#linear-gradient-12);
      }

      .cls-14 {
        fill: url(#linear-gradient-13);
      }

      .cls-15 {
        fill: url(#linear-gradient-14);
      }

      .cls-16 {
        fill: url(#linear-gradient-15);
      }

      .cls-17 {
        fill: url(#linear-gradient-16);
      }

      .cls-18 {
        fill: url(#linear-gradient-17);
      }

      .cls-19 {
        fill: url(#linear-gradient-18);
      }

      .cls-20 {
        fill: url(#linear-gradient-19);
      }

      .cls-21 {
        fill: url(#linear-gradient-20);
      }

      .cls-22 {
        fill: url(#linear-gradient-21);
      }

      .cls-23 {
        fill: url(#linear-gradient-22);
      }

      .cls-24 {
        fill: url(#linear-gradient-23);
      }

      .cls-25 {
        fill: url(#linear-gradient-24);
      }

      .cls-26 {
        fill: url(#linear-gradient-25);
      }

      .cls-27 {
        fill: url(#linear-gradient-26);
      }

      .cls-28 {
        fill: url(#linear-gradient-27);
      }

      .cls-29 {
        fill: url(#linear-gradient-28);
      }
    </style>
    <linearGradient id="linear-gradient" x1="563.35" y1="151.83" x2="303.05" y2="151.83" gradientUnits="userSpaceOnUse">
      <stop offset="0" stop-color="#717577"/>
      <stop offset="0.05" stop-color="#7c7f81"/>
      <stop offset="0.13" stop-color="#989b9c"/>
      <stop offset="0.23" stop-color="#c6c8c8"/>
      <stop offset="0.33" stop-color="#f8f8f8"/>
      <stop offset="0.48" stop-color="#f8f8f8"/>
      <stop offset="0.5" stop-color="#f8f8f8"/>
      <stop offset="0.5" stop-color="#f6f6f6"/>
      <stop offset="0.5" stop-color="#eff0f0"/>
      <stop offset="0.5" stop-color="#e4e4e4"/>
      <stop offset="0.5" stop-color="#d3d3d4"/>
      <stop offset="0.5" stop-color="#bdbebf"/>
      <stop offset="0.5" stop-color="#a2a4a6"/>
      <stop offset="0.5" stop-color="#999b9d"/>
      <stop offset="0.55" stop-color="#a2a4a6"/>
      <stop offset="0.63" stop-color="#bbbdbe"/>
      <stop offset="0.73" stop-color="#e4e4e5"/>
      <stop offset="0.77" stop-color="#f8f8f8"/>
      <stop offset="0.9" stop-color="#acaeaf"/>
      <stop offset="1" stop-color="#717577"/>
    </linearGradient>
    <linearGradient id="linear-gradient-2" x1="535.07" y1="-13.67" x2="307.14" y2="181.23" gradientUnits="userSpaceOnUse">
      <stop offset="0" stop-color="#2e3192"/>
      <stop offset="0.5" stop-color="#00aeef"/>
      <stop offset="1" stop-color="#2e3192"/>
    </linearGradient>
    <linearGradient id="linear-gradient-3" x1="548.46" y1="2" x2="320.54" y2="196.9" xlink:href="#linear-gradient-2"/>
    <linearGradient id="linear-gradient-4" x1="531.92" y1="-17.33" x2="304.03" y2="177.55" xlink:href="#linear-gradient-2"/>
    <linearGradient id="linear-gradient-5" x1="531.88" y1="-17.43" x2="303.93" y2="177.5" xlink:href="#linear-gradient-2"/>
    <linearGradient id="linear-gradient-6" x1="584.34" y1="43.94" x2="356.41" y2="238.84" xlink:href="#linear-gradient-2"/>
    <linearGradient id="linear-gradient-7" x1="570.04" y1="27.22" x2="342.11" y2="222.12" xlink:href="#linear-gradient-2"/>
    <linearGradient id="linear-gradient-8" x1="827.77" y1="43.35" x2="477.43" y2="252.35" xlink:href="#linear-gradient-2"/>
    <linearGradient id="linear-gradient-9" x1="864.47" y1="104.87" x2="514.13" y2="313.86" xlink:href="#linear-gradient-2"/>
    <linearGradient id="linear-gradient-10" x1="558.75" y1="192.34" x2="846.71" y2="192.34" gradientUnits="userSpaceOnUse">
      <stop offset="0" stop-color="#717577"/>
      <stop offset="0.48" stop-color="#f8f8f8"/>
      <stop offset="0.57" stop-color="#eaeaea"/>
      <stop offset="0.72" stop-color="#c4c6c6"/>
      <stop offset="0.93" stop-color="#888b8d"/>
      <stop offset="1" stop-color="#717577"/>
    </linearGradient>
    <linearGradient id="linear-gradient-11" x1="785.2" y1="43.35" x2="434.86" y2="252.34" gradientTransform="matrix(-1, 0, 0, 1, 828.64, 0)" xlink:href="#linear-gradient-2"/>
    <linearGradient id="linear-gradient-12" x1="821.89" y1="104.87" x2="471.56" y2="313.86" gradientTransform="matrix(-1, 0, 0, 1, 828.64, 0)" xlink:href="#linear-gradient-2"/>
    <linearGradient id="linear-gradient-13" x1="516.18" y1="192.34" x2="804.13" y2="192.34" gradientTransform="matrix(-1, 0, 0, 1, 828.64, 0)" xlink:href="#linear-gradient-10"/>
    <linearGradient id="linear-gradient-14" x1="29.77" y1="308.12" x2="29.77" y2="388.54" xlink:href="#linear-gradient-10"/>
    <linearGradient id="linear-gradient-15" x1="88.39" y1="308.12" x2="88.39" y2="388.54" xlink:href="#linear-gradient-10"/>
    <linearGradient id="linear-gradient-16" x1="138.84" y1="308.12" x2="138.84" y2="388.54" xlink:href="#linear-gradient-10"/>
    <linearGradient id="linear-gradient-17" x1="191.07" y1="308.12" x2="191.07" y2="388.54" xlink:href="#linear-gradient-10"/>
    <linearGradient id="linear-gradient-18" x1="248.08" y1="308.12" x2="248.08" y2="388.54" xlink:href="#linear-gradient-10"/>
    <linearGradient id="linear-gradient-19" x1="302.44" y1="308.12" x2="302.44" y2="388.54" xlink:href="#linear-gradient-10"/>
    <linearGradient id="linear-gradient-20" x1="374.03" y1="308.12" x2="374.03" y2="388.54" xlink:href="#linear-gradient-2"/>
    <linearGradient id="linear-gradient-21" x1="425.25" y1="308.12" x2="425.25" y2="388.54" xlink:href="#linear-gradient-2"/>
    <linearGradient id="linear-gradient-22" x1="482.53" y1="308.12" x2="482.53" y2="388.54" xlink:href="#linear-gradient-2"/>
    <linearGradient id="linear-gradient-23" x1="549.44" y1="308.12" x2="549.44" y2="388.54" xlink:href="#linear-gradient-2"/>
    <linearGradient id="linear-gradient-24" x1="610.43" y1="308.12" x2="610.43" y2="388.54" xlink:href="#linear-gradient-2"/>
    <linearGradient id="linear-gradient-25" x1="668.27" y1="308.12" x2="668.27" y2="388.54" xlink:href="#linear-gradient-2"/>
    <linearGradient id="linear-gradient-26" x1="727.94" y1="308.12" x2="727.94" y2="388.54" xlink:href="#linear-gradient-2"/>
    <linearGradient id="linear-gradient-27" x1="788.37" y1="308.12" x2="788.37" y2="388.54" xlink:href="#linear-gradient-2"/>
    <linearGradient id="linear-gradient-28" x1="846.48" y1="308.12" x2="846.48" y2="388.54" xlink:href="#linear-gradient-2"/>
  </defs>
  <g id="Layer_2" data-name="Layer 2">
    <g id="Layer_1-2" data-name="Layer 1">
      <g>
        <g>
          <g>
            <path class="cls-1" d="M338.9,300.7l-59.8-184L435.6,3,592.1,116.7l-59.8,184Zm-36-176.3,50.7,156.1h164l50.7-156.1L435.6,28Z"/>
            <path class="cls-2" d="M435.6,6,589.3,117.6,530.6,298.3h-190L281.9,117.6,435.6,6M351.8,282.9H519.4l1.1-3.4,49.6-152.7,1.1-3.3-2.9-2.1L438.4,27.1,435.6,25l-2.8,2.1L302.9,121.4l-2.9,2.1,1.1,3.3,49.6,152.7,1.1,3.4M435.6,0,276.3,115.8l60.8,187.3h197L595,115.8,435.6,0ZM355.3,278,305.7,125.3,435.6,31l129.9,94.3L515.9,278Z"/>
          </g>
          <g>
            <path class="cls-3" d="M365.5,102.7l-3.5-6,6.4-2.4,4-1.5,4-1.1,4.1-.7a29.8,29.8,0,0,1,4.2-.4,19.7,19.7,0,0,1,4.2,0,28.5,28.5,0,0,1,4.1.4,20.7,20.7,0,0,1,4.1.7l4,1.1,1.8.7.8.3.7.2.4.3a25.3,25.3,0,0,1,3.7,1.8c1.1.7,2.3,1.3,3.4,2.1a25.1,25.1,0,0,1,3.2,2.5,35.7,35.7,0,0,1,2.8,2.7,25.1,25.1,0,0,1,2.6,3.1,36.2,36.2,0,0,1,2.2,3.2c.6,1.2,1.1,2.3,1.6,3.5l-3-2.3c-1.1-.7-2-1.5-3-2a38.1,38.1,0,0,0-6.3-3.3l-3.3-1.3-3.3-1a31.8,31.8,0,0,0-3.3-.8l-3.4-.6a20.2,20.2,0,0,0-3.3-.3,16.9,16.9,0,0,0-3.2-.1,18.2,18.2,0,0,0-3.3.1,31.6,31.6,0,0,0-3.2.3l-3.3.5-2.1.5,1.6,1.9,2.4,2.2,2.5,2.2,2.8,1.9,2.9,1.7,3.1,1.5.4.2h.3l.8.3,1.9.6,1.6.6,1.6.5c1.1.4,2.3.6,3.4.9l3.6.7,3.6.4,3.8.2h3.8l3.9-.3-3.4,2.1-3.7,1.5-3.9,1.3-4.1.8c-1.3.1-2.7.4-4.1.4h-4.2l-2.2-.2-2.1-.3-1.9-.3-.9-.2-1.3-.3c-1.3-.4-2.7-.7-4-1.2l-4-1.7-3.8-2L377,116l-3.3-2.8-3.1-3.2-2.7-3.5Z"/>
            <path class="cls-4" d="M446.8,86.6a35.4,35.4,0,0,0-1.6,3.4,8.7,8.7,0,0,0-.5,1.9l-.6,1.9a11.7,11.7,0,0,1-.5-2,12,12,0,0,1-.3-2V87.7a8.2,8.2,0,0,1,.2-2.2,20.9,20.9,0,0,1,.5-2.1,8,8,0,0,1,.7-2l.9-2,.2-.5.3-.6.6-.8a12.9,12.9,0,0,1,1.3-1.8l1.5-1.7,1.7-1.5,1.8-1.3,2-1.1,2.1-1a31.7,31.7,0,0,1,4.4-1.2l3.7-.7.5,3.7.2,2.3v2.4a25.4,25.4,0,0,1-.7,4.7,14.1,14.1,0,0,1-.6,2.2l-.9,2.2a22.5,22.5,0,0,1-1.2,2.1,8,8,0,0,1-1.3,1.9l-.4.4v.3h-.1v.3h-.2l-.7.7-1.5,1.4-1.9,1.3-2,1.2a7.8,7.8,0,0,1-2.1.9l-2.1.7-2.1.3h-2.1l1.7-1.2,1.7-1.1,1.5-1.3a5.8,5.8,0,0,0,1.4-1.3l1.2-1.3c.3-.5.7-.8,1.1-1.5l1.1-1.7.6-.8h-.1l.2-.2.2-.4c.2-.6.5-1.1.7-1.7a7.6,7.6,0,0,0,.6-1.6c.1-.6.3-1.1.4-1.7s.3-1.1.4-1.7a26.4,26.4,0,0,0,.2-2.8l-.8.3-1.5.7-1.5.8a6,6,0,0,0-1.3.9l-1.3,1a6.3,6.3,0,0,0-1.3,1.1l-.7.8-.3.2-.2.4-1.1,1.3a8.3,8.3,0,0,0-1.1,1.5A11.9,11.9,0,0,1,446.8,86.6Z"/>
            <path class="cls-5" d="M443.5,73l-.8,2.2a7.5,7.5,0,0,1-1,2l-1.1,1.9c-.4.6-1,1.1-1.4,1.7l-1.5,1.5.5-2.1a7.7,7.7,0,0,0,.5-1.9,11.8,11.8,0,0,1,.4-2,6.2,6.2,0,0,0,.1-1.9l.2-1.9a12.8,12.8,0,0,0-.1-1.9,14.8,14.8,0,0,1-.1-2.1l-.3-1.7a11.3,11.3,0,0,0-.3-1.8,17.7,17.7,0,0,0-.6-1.7,5.8,5.8,0,0,0-.6-1.7,11.1,11.1,0,0,0-.7-1.6,11.9,11.9,0,0,0-.8-1.6l-.3-.5-.3.5c-.3.5-.5,1.1-.8,1.6s-.5,1.1-.8,1.6l-.6,1.7a13.6,13.6,0,0,0-.4,1.7,4.8,4.8,0,0,0-.4,1.8l-.2,1v.5h0v.3c0,.6-.1,1.2-.1,1.8a6.2,6.2,0,0,0-.1,1.9v1.9a13.6,13.6,0,0,0,.2,2,10.8,10.8,0,0,1,.3,1.9,15.2,15.2,0,0,0,.6,2,16,16,0,0,1,.5,2.1L432,80.8a10.9,10.9,0,0,1-1.3-1.7l-1.2-1.8a20,20,0,0,1-1-2.1l-.8-2.1a8,8,0,0,1-.5-2.1,18.5,18.5,0,0,1-.4-2.3V66.5a17.6,17.6,0,0,1,0-2.3l.3-2.3c.2-.8.3-1.6.5-2.3s.4-1.5.7-2.2l.9-2.2,1.1-2.1a33.7,33.7,0,0,1,2.8-3.8l2.7-3.3,2.7,3.3a33.7,33.7,0,0,1,2.8,3.8l1.1,2.1.9,2.2a14.2,14.2,0,0,1,.7,2.2,15.5,15.5,0,0,1,.5,2.3l.3,2.3a17.6,17.6,0,0,1,0,2.3v2.4a14.2,14.2,0,0,0-.4,2A16.6,16.6,0,0,1,443.5,73Z"/>
            <path class="cls-6" d="M428.1,87.7a14.7,14.7,0,0,1,0,2.1,6.4,6.4,0,0,1-.3,2,11.8,11.8,0,0,1-.4,2,13.9,13.9,0,0,1-.6-1.9,8.5,8.5,0,0,0-.6-1.9,35.4,35.4,0,0,0-1.6-3.4l-.9-1.5c-.3-.6-.7-1-1-1.5l-1.2-1.3-.2-.4-.3-.2-.7-.8a6,6,0,0,0-1.2-1.1l-1.3-1a11,11,0,0,0-1.4-.9,7.1,7.1,0,0,0-1.5-.8l-1.5-.7-.8-.3a13.3,13.3,0,0,0,.3,2.8,8.6,8.6,0,0,0,.3,1.7c.1.6.3,1.1.4,1.7a16.6,16.6,0,0,1,.6,1.6,13,13,0,0,0,.8,1.7l.2.4v.2h-.1l.6.8a16.3,16.3,0,0,1,1.1,1.7,9.8,9.8,0,0,0,1.2,1.5l1.1,1.3a8.6,8.6,0,0,0,1.4,1.3l1.5,1.3,1.7,1.1,1.7,1.2h-2.1l-2.1-.3-2.1-.7a9.5,9.5,0,0,1-2.1-.9l-2-1.2a9.3,9.3,0,0,1-1.8-1.3l-1.6-1.4-.7-.7h-.1l-.2-.3h-.1v-.3l-.4-.4a12.7,12.7,0,0,1-1.3-1.9,21.2,21.2,0,0,1-1.1-2.1,14.5,14.5,0,0,1-.9-2.2,8.1,8.1,0,0,1-.7-2.2,25.4,25.4,0,0,1-.7-4.7V73.2l.3-2.3.4-3.7,3.7.7a31.7,31.7,0,0,1,4.4,1.2l2.1,1,2,1.1,1.8,1.3,1.7,1.5a12.9,12.9,0,0,1,1.6,1.7l1.3,1.8.5.8.3.6.2.5a8.8,8.8,0,0,1,.9,2,8,8,0,0,1,.7,2,20.9,20.9,0,0,1,.5,2.1A8.2,8.2,0,0,1,428.1,87.7Z"/>
            <path class="cls-7" d="M549.5,137.9l-3.6,4.5c-1.4,1.7-2.8,3.5-4.3,5.2l-1.6,1.8a55.1,55.1,0,0,1-7,6.6l-.3.2a46.5,46.5,0,0,1-6.4,4.1.5.5,0,0,1-.4.2,6.1,6.1,0,0,1-1.4.7,43.7,43.7,0,0,1-4.6,1.8,42.1,42.1,0,0,1-4.8,1.2,46.8,46.8,0,0,1-9.6.9l-4.7-.2c-1.6-.2-3.1-.2-4.6-.5h-.1l-4.5-.9-4-1h-.5a44.3,44.3,0,0,1-4.4-1.4l-3.2-1.2-1.1-.4-4-1.6,2.6-3.1a21.9,21.9,0,0,1,2-2.2l2.1-1.8a44.8,44.8,0,0,1,4.4-3.2l2.4-1.3,2.4-1.3a30.2,30.2,0,0,1,5-1.9l2.6-.8,2.5-.6,2.6-.4,2.6-.3a31.3,31.3,0,0,1,5.3-.2,23.5,23.5,0,0,1,2.6.1l2.5.2-2.5.3-2.6.4a43.1,43.1,0,0,0-4.9,1.1l-2.5.7-2.3.8a15.7,15.7,0,0,0-2.3.9l-2.3,1.1a35,35,0,0,0-4.2,2.4l-2.1,1.3-1.9,1.5c-1.2,1-2.3,2.1-3.4,3.2l3,.6h.7a30.5,30.5,0,0,0,4.1.5c1.4.3,2.8.2,4.2.4a74.8,74.8,0,0,0,8.2-.1,32.1,32.1,0,0,0,3.9-.5,25.7,25.7,0,0,0,3.8-.8l3.6-1.3,3.4-1.6.7-.4a30.9,30.9,0,0,0,5.5-4,65.3,65.3,0,0,0,5.2-5.3l1.6-2a57,57,0,0,0-10.9-4.5,53.1,53.1,0,0,0-8.7-1.6,51.9,51.9,0,0,0-8.8-.1l-2.3.3-2.1.4a32,32,0,0,0-4.2,1,53.1,53.1,0,0,0-8.3,3.3,66.3,66.3,0,0,0-14.8,10.5c-1.1,1.1-2.2,2.1-3.1,3.2l-1.6,1.8-.7.8-.7,1-3.1,4.2c-.8,1.2-1.6,2.4-2.3,3.6a72.6,72.6,0,0,0-4.4,8.3,85.7,85.7,0,0,0-3.3,8.9c-1,3.1-1.7,6.2-2.4,9.4a20.5,20.5,0,0,0-.5,2.4l1-2c1.5-2.8,3.1-5.6,4.8-8.3l2-3,21.2,84.2H391.5l21.2-84.2a31.3,31.3,0,0,1,2,3c1.7,2.7,3.3,5.5,4.8,8.3l1,2a20.5,20.5,0,0,0-.5-2.4c-.7-3.2-1.4-6.3-2.4-9.4a67.6,67.6,0,0,0-3.3-8.9,72.6,72.6,0,0,0-4.4-8.3c-.7-1.2-1.5-2.4-2.3-3.6l-3.1-4.2-.7-1-.7-.8a14.5,14.5,0,0,0-1.6-1.8c-.9-1.1-2-2.1-3.1-3.2a64.1,64.1,0,0,0-14.8-10.5,53.1,53.1,0,0,0-8.3-3.3,32,32,0,0,0-4.2-1l-2.1-.4-2.3-.3a50.7,50.7,0,0,0-8.7.1,49.5,49.5,0,0,0-8.7,1.6,55.3,55.3,0,0,0-11,4.5,16.3,16.3,0,0,0,1.7,2,51.3,51.3,0,0,0,5.1,5.3,30.9,30.9,0,0,0,5.5,4l.7.4,3.4,1.6,3.6,1.3a25.7,25.7,0,0,0,3.8.8,32.1,32.1,0,0,0,3.9.5,74.8,74.8,0,0,0,8.2.1c1.4-.2,2.8-.1,4.2-.4a30.5,30.5,0,0,0,4.1-.5h.7l3-.6a34.7,34.7,0,0,0-3.4-3.2l-1.9-1.5-2-1.3a46.3,46.3,0,0,0-4.3-2.4l-2.3-1.1a15.7,15.7,0,0,0-2.3-.9l-2.3-.8-2.5-.7a43.1,43.1,0,0,0-4.9-1.1l-2.6-.4-2.5-.3,2.6-.2a20.9,20.9,0,0,1,2.5-.1,31.3,31.3,0,0,1,5.3.2l2.6.3,2.6.4,2.5.6,2.6.8a30.2,30.2,0,0,1,5,1.9l2.4,1.3,2.4,1.3a44.8,44.8,0,0,1,4.4,3.2l2.1,1.8a21.9,21.9,0,0,1,2,2.2l2.6,3.1-4,1.6-1,.4-3.3,1.2a44.3,44.3,0,0,1-4.4,1.4h-.5l-4,1-4.5.9h0c-1.6.3-3.1.3-4.7.5l-4.6.2a37.8,37.8,0,0,1-4.9-.2,37,37,0,0,1-4.8-.7,42.1,42.1,0,0,1-4.8-1.2,43.7,43.7,0,0,1-4.6-1.8l-1.4-.7-.4-.2a46.5,46.5,0,0,1-6.4-4.1l-.3-.2a55.1,55.1,0,0,1-7-6.6l-1.6-1.8c-1.5-1.7-2.9-3.5-4.3-5.2l-3.6-4.5,4.7-3.6a59.3,59.3,0,0,1,30.4-12.1,59.9,59.9,0,0,1,11.2.1l2.6.3,2.9.5a54.4,54.4,0,0,1,5.4,1.5A53.3,53.3,0,0,1,389,129a67.6,67.6,0,0,1,16.9,13.2c1.3,1.4,2.4,2.7,3.6,4.2l1.6,2.2.8,1.1.6,1.1a73.9,73.9,0,0,1,5.2,9.1l17.9-71.1,17.9,71.1a89.5,89.5,0,0,1,5.2-9.1l.7-1.1.8-1.1a21.7,21.7,0,0,1,1.5-2.2c1.2-1.5,2.3-2.8,3.6-4.2A67.6,67.6,0,0,1,482.2,129a53.3,53.3,0,0,1,10.1-4.4l5.4-1.5,2.9-.5,2.6-.3a59.9,59.9,0,0,1,11.2-.1,59.3,59.3,0,0,1,30.4,12.1Z"/>
            <path class="cls-8" d="M462.7,96.1a31.4,31.4,0,0,1,3.7-1.8l.4-.3.7-.2.8-.3,1.8-.7,4-1.1a20.7,20.7,0,0,1,4.1-.7,29.8,29.8,0,0,1,4.2-.4,18.7,18.7,0,0,1,4.1,0,29.8,29.8,0,0,1,4.2.4l4.1.7,4,1.1,4,1.5,6.4,2.4-3.5,6-2.4,3.8-2.7,3.5-3.1,3.2-3.3,2.8-3.7,2.5-3.8,2-4,1.7c-1.3.5-2.7.8-4,1.2l-1.3.3-.9.2-1.9.3-2.1.3-2.2.2h-4.2c-1.4,0-2.8-.3-4.1-.4l-4.1-.8-3.9-1.3-3.7-1.5-3.4-2.1,3.9.3h3.8l3.8-.2,3.6-.4,3.6-.7c1.1-.3,2.3-.5,3.4-.9l1.6-.5,1.7-.6,1.8-.6.8-.3h.3l.4-.2,3.1-1.5,2.9-1.7,2.8-1.9,2.5-2.2,2.4-2.2,1.6-1.9-2.1-.5-3.3-.5a31.6,31.6,0,0,0-3.2-.3,18.2,18.2,0,0,0-3.3-.1,16.9,16.9,0,0,0-3.2.1,20.2,20.2,0,0,0-3.3.3l-3.4.6a31.8,31.8,0,0,0-3.3.8l-3.3,1-3.2,1.3a35.3,35.3,0,0,0-6.4,3.3c-1,.5-1.9,1.3-3,2s-1.9,1.6-3,2.3a28.1,28.1,0,0,1,1.7-3.5,22,22,0,0,1,2.1-3.2,25.1,25.1,0,0,1,2.6-3.1,35.7,35.7,0,0,1,2.8-2.7,25.1,25.1,0,0,1,3.2-2.5C460.4,97.4,461.6,96.8,462.7,96.1Z"/>
          </g>
          <g>
            <polygon class="cls-9" points="805.8 115.8 603 127.9 607 115.8 805.8 115.8"/>
            <polygon class="cls-10" points="816.5 149 547.4 299 555.7 273.6 816.5 149"/>
            <path class="cls-11" d="M818.6,127.4l28.1-6.8-25.8,1.5-11.8.7-24.4,1.5-11.9.7L600.6,135.3l-15.7,48.3,40.3-9.7L616,195.1h0l-38.5,11.4-18.7,57.6,194-92.7,14.5-7,30-14.3h0l14.4-6.9,32.9-15.7-29.9,8.8ZM666.4,180.2h0l-37.3,11,8.9-20.4,36.2-8.7ZM715,165.8l-35.5,10.5L687,159h0l34.6-8.3Zm46.1-13.6-33,9.8,6.2-14.4,32.1-7.7Zm40.5-12-27.3,8.1,5-11.5,26.5-6.4Z"/>
          </g>
          <g>
            <polygon class="cls-12" points="65.4 115.8 268.2 127.9 264.3 115.8 65.4 115.8"/>
            <polygon class="cls-13" points="54.8 149 323.8 299 315.5 273.6 54.8 149"/>
            <path class="cls-14" d="M56.5,136.3l-29.9-8.8,32.9,15.7,14.4,6.9h0l30,14.3,14.5,7,194.1,92.7-18.7-57.6-38.6-11.4h0L246,173.9l40.3,9.7-15.7-48.3L98.4,125l-11.9-.7-24.4-1.5-11.7-.7-25.9-1.5,28.1,6.8ZM197,162.1l36.3,8.7,8.8,20.4-37.3-11h0Zm-47.3-11.4,34.5,8.3h0l7.5,17.3-35.5-10.5Zm-44.9-10.8,32.1,7.7,6.2,14.4-33-9.8Zm-39.4-9.5L92,136.8l4.9,11.5-27.3-8.1Z"/>
          </g>
        </g>
        <g>
          <path class="cls-15" d="M18.6,375.8A53.8,53.8,0,0,1,8,375.1a10.9,10.9,0,0,1-5.1-2.2,8.3,8.3,0,0,1-2.7-4.7,23.1,23.1,0,0,1,.3-7.7l2-11.4A31.6,31.6,0,0,1,5,340.8,13.6,13.6,0,0,1,9.4,336a16.4,16.4,0,0,1,6-2.3,69.9,69.9,0,0,1,10.7-.6h15a66.9,66.9,0,0,1,10.5.6,11.4,11.4,0,0,1,5.2,2.3,7.7,7.7,0,0,1,2.5,4.8,21.2,21.2,0,0,1-.3,7.8l-2,11.6a26.2,26.2,0,0,1-2.5,7.9,14,14,0,0,1-4.2,4.8,16.3,16.3,0,0,1-6,2.2,58.2,58.2,0,0,1-10.8.7Zm5.3-10.4H32c4.5,0,7.6-.6,9.2-1.7s2.8-3.3,3.4-6.3l1-5.9c.5-3.1.2-5.2-1.1-6.3s-4.2-1.7-8.7-1.7H27.7c-4.6,0-7.7.5-9.4,1.7s-2.7,3.3-3.3,6.5l-1,5.8c-.5,3-.1,5.1,1.2,6.2S19.4,365.4,23.9,365.4Z"/>
          <path class="cls-16" d="M113.1,343.7H80.2l-1.3,7.5h30.9l-1.7,10.1h-31l-2.5,14H61.9l7.4-41.7h45.6Z"/>
          <path class="cls-17" d="M163.5,343.7H130.7l-1.4,7.5h31l-1.8,10.1H127.6l-2.5,14H112.4l7.3-41.7h45.6Z"/>
          <path class="cls-18" d="M164.8,361.4h12.6l-.2.7c-.2,1.6,0,2.7.6,3.2s2.3.9,4.7.9h16a6.2,6.2,0,0,0,3.5-.8,4,4,0,0,0,1.5-2.7,2.7,2.7,0,0,0-.7-2.7c-.7-.5-2.3-.9-4.8-1.1l-19.9-.4c-5-.2-8.2-1.1-9.7-2.9s-1.8-4.9-.9-9.6a24.6,24.6,0,0,1,1.7-5.9,12.4,12.4,0,0,1,2.9-3.9,13.9,13.9,0,0,1,5.2-2.4,46.2,46.2,0,0,1,9.7-.7h19.5c4.8,0,8.1.8,9.9,2.6s2.4,4.6,1.7,8.5a2.9,2.9,0,0,1-.2.9,5,5,0,0,1-.3,1.4H205.3a3.4,3.4,0,0,0-.5-3.1,3.4,3.4,0,0,0-2.9-1.1H187.2a13.2,13.2,0,0,0-5,.7,3.4,3.4,0,0,0-1.6,2.6,2.7,2.7,0,0,0,.6,2.6,6.6,6.6,0,0,0,3.7,1l20.9.3q7.2.3,9.6,3.3c1.6,2,1.9,5.4,1.1,10.3a17.9,17.9,0,0,1-2.3,6.7,12.1,12.1,0,0,1-4.3,4.1,14.9,14.9,0,0,1-4.9,1.5,58.7,58.7,0,0,1-8.4.5h-17c-7,0-11.5-.8-13.6-2.3s-2.7-4.5-2-8.8a5,5,0,0,0,.3-1.2C164.4,362.9,164.6,362.2,164.8,361.4Z"/>
          <path class="cls-19" d="M272.8,343.7H239.9l-1.1,6.3h30.9l-1.5,8.8h-31l-1.1,6.4h33.4l-1.8,10.1H221.6l7.4-41.7h45.6Z"/>
          <path class="cls-20" d="M302.3,375.3H289.6l5.6-31.5H277.7l1.8-10.2h47.7l-1.8,10.2H307.9Z"/>
          <path class="cls-21" d="M373.9,375.3H361.2l5.6-31.5H349.3l1.8-10.2h47.7L397,343.8H379.5Z"/>
          <path class="cls-22" d="M438.1,333.6c6.7,0,11,.9,13,2.9s2.6,5.5,1.7,10.7q-.9,5.4-3,8.1a10.6,10.6,0,0,1-6,3.5,7.3,7.3,0,0,1,4.5,2.8,6.5,6.5,0,0,1,.7,5.1l-1.5,8.6H434.8l1.1-6.4c.3-1.6.1-2.7-.6-3.4s-2.1-.9-4.4-.9h-19L410,375.3H397.3l7.3-41.7ZM435.8,344H415.6l-1.8,10.2H434a5.2,5.2,0,0,0,3.8-1.2,8.7,8.7,0,0,0,1.8-4.3c.3-1.7.1-2.9-.5-3.6S437.4,344,435.8,344Z"/>
          <path class="cls-23" d="M465.7,375.3H451.8L482,333.6h16.2l15,41.7H499.3l-2.9-7H471Zm11.9-17h16l-5.5-14.8Z"/>
          <path class="cls-24" d="M574,375.3H555.3l-19.7-30.4-5.3,30.4H517.6l7.3-41.7h18.9l19.4,30.6,5.4-30.6h12.7Z"/>
          <path class="cls-25" d="M584.2,361.4h12.5v.7c-.3,1.6-.1,2.7.6,3.2s2.2.9,4.7.9h16a6.5,6.5,0,0,0,3.5-.8,4.5,4.5,0,0,0,1.5-2.7,2.7,2.7,0,0,0-.7-2.7c-.7-.5-2.3-.9-4.8-1.1l-20-.4c-5-.2-8.2-1.1-9.6-2.9s-1.8-4.9-1-9.6a20.6,20.6,0,0,1,1.8-5.9,12.4,12.4,0,0,1,2.9-3.9,13.2,13.2,0,0,1,5.2-2.4,45.5,45.5,0,0,1,9.7-.7h19.4c4.9,0,8.2.8,10,2.6s2.4,4.6,1.7,8.5c-.1.3-.1.6-.2.9a10.6,10.6,0,0,0-.3,1.4H624.7a3.4,3.4,0,0,0-.5-3.1,3.8,3.8,0,0,0-3-1.1H606.5a12.6,12.6,0,0,0-4.9.7,3.8,3.8,0,0,0-1.7,2.6,2.7,2.7,0,0,0,.6,2.6,7.3,7.3,0,0,0,3.8,1l20.9.3c4.8.2,7.9,1.3,9.5,3.3s2,5.4,1.1,10.3a18.1,18.1,0,0,1-2.2,6.7,12.5,12.5,0,0,1-4.4,4.1,13.6,13.6,0,0,1-4.8,1.5,58.7,58.7,0,0,1-8.4.5H599c-7,0-11.5-.8-13.6-2.3s-2.7-4.5-2-8.8a4.9,4.9,0,0,1,.3-1.2C583.8,362.9,584,362.2,584.2,361.4Z"/>
          <path class="cls-26" d="M680.5,333.6a39.8,39.8,0,0,1,6.7.4,11,11,0,0,1,4.1,1.3,7.4,7.4,0,0,1,3.7,4.9c.6,2.2.5,5.2-.1,9-1,5.7-2.7,9.8-5,12.1s-5.8,3.6-10.3,3.6H655.7l-1.8,10.4H641.1l7.4-41.7ZM678.2,344H659.4l-1.8,10.5h18.8a5,5,0,0,0,3.7-1.2,8.2,8.2,0,0,0,1.9-4.5,4.7,4.7,0,0,0-.5-3.7C680.9,344.3,679.8,344,678.2,344Z"/>
          <path class="cls-27" d="M716.8,375.8a53.1,53.1,0,0,1-10.6-.7,11.9,11.9,0,0,1-5.2-2.2,8.1,8.1,0,0,1-2.6-4.7,20.7,20.7,0,0,1,.3-7.7l2-11.4a28.2,28.2,0,0,1,2.5-8.3,13.3,13.3,0,0,1,4.3-4.8,16.4,16.4,0,0,1,6-2.3,70.8,70.8,0,0,1,10.7-.6h15a65.2,65.2,0,0,1,10.5.6,10.9,10.9,0,0,1,5.2,2.3,7.8,7.8,0,0,1,2.6,4.8,21.2,21.2,0,0,1-.3,7.8l-2.1,11.6a23.8,23.8,0,0,1-2.4,7.9,13.3,13.3,0,0,1-4.3,4.8,15.8,15.8,0,0,1-5.9,2.2,58.2,58.2,0,0,1-10.8.7Zm5.2-10.4h8.1c4.5,0,7.6-.6,9.3-1.7s2.8-3.3,3.3-6.3l1.1-5.9c.5-3.1.1-5.2-1.1-6.3s-4.2-1.7-8.7-1.7h-8.2c-4.6,0-7.7.5-9.3,1.7s-2.7,3.3-3.3,6.5l-1,5.8c-.5,3-.2,5.1,1.1,6.2S717.6,365.4,722,365.4Z"/>
          <path class="cls-28" d="M801.3,333.6c6.6,0,10.9.9,12.9,2.9s2.7,5.5,1.7,10.7q-.9,5.4-3,8.1a10.3,10.3,0,0,1-6,3.5,7.1,7.1,0,0,1,4.5,2.8,7,7,0,0,1,.8,5.1l-1.5,8.6H797.9l1.1-6.4c.3-1.6.1-2.7-.5-3.4s-2.2-.9-4.5-.9H775l-1.9,10.7H760.4l7.3-41.7ZM798.9,344H778.7l-1.8,10.2h20.2a5.2,5.2,0,0,0,3.8-1.2,8.7,8.7,0,0,0,1.8-4.3c.3-1.7.1-2.9-.5-3.6S800.5,344,798.9,344Z"/>
          <path class="cls-29" d="M846.4,375.3H833.7l5.5-31.5H821.8l1.8-10.2h47.6l-1.8,10.2H851.9Z"/>
        </g>
      </g>
    </g>
  </g>
</svg>
